<svg xmlns="http://www.w3.org/2000/svg" viewBox="0 0 79 107.31">
    <defs>
        <style>
            .cls-1{isolation:isolate;}
            .cls-2{fill:#a1721b;}
            .cls-3{fill:#00820b;}
            .cls-4{opacity:0.15;mix-blend-mode:darken;}
            .cls-5{fill:#c94040;}
        </style>
    </defs>
    <title>christmas tree</title>
    <g class="cls-1">
        <polygon class="cls-2" points="40 69.31 34 69.31 34 107.31 40 107.31 46 107.31 46 69.31 40 69.31"/>
        <polygon class="cls-3" points="39.5 34.94 0 89.81 39.5 89.81 79 89.81 39.5 34.94"/>
        <polygon class="cls-3" points="39.5 15.81 7.1 60.81 39.5 60.81 71.9 60.81 39.5 15.81"/>
        <polygon class="cls-3" points="39.5 0 13 36.81 39.5 36.81 66 36.81 39.5 0"/>
        <polygon class="cls-4" points="79 89.81 58.12 60.81 71.9 60.81 54.62 36.81 66 36.81 39.5 0 39.5 107.31 46 107.31 46 89.81 79 89.81"/>
        <circle class="cls-5" cx="29.5" cy="46.81" r="2.5"/>
        <circle class="cls-5" cx="53.5" cy="76.81" r="3.5"/>
        <circle class="cls-5" cx="38.5" cy="16.81" r="1.5"/>
        <circle class="cls-5" cx="31.5" cy="73.81" r="2.5"/>
        <circle class="cls-5" cx="50.5" cy="57.81" r="2.5"/>
        <circle class="cls-5" cx="46" cy="34.31" r="2"/>
        <circle class="cls-5" cx="13.5" cy="83.81" r="3.5"/>
        <circle class="cls-5" cx="65" cy="57.31" r="2"/>
    </g>
</svg>